<svg width="28" height="28" viewBox="0 0 28 28" fill="none" xmlns="http://www.w3.org/2000/svg">
<path d="M14 28C21.6588 28 28 21.6451 28 14C28 6.34118 21.6451 0 13.9863 0C6.34118 0 0 6.34118 0 14C0 21.6451 6.3549 28 14 28ZM14 25.6667C7.52157 25.6667 2.34706 20.4784 2.34706 14C2.34706 7.52157 7.50784 2.33333 13.9863 2.33333C20.4647 2.33333 25.6529 7.52157 25.6667 14C25.6804 20.4784 20.4784 25.6667 14 25.6667ZM13.9863 7.41176C14.7137 7.41176 15.3314 6.79412 15.3314 6.06667C15.3314 5.31176 14.7137 4.70784 13.9863 4.70784C13.2451 4.70784 12.6412 5.31176 12.6412 6.06667C12.6412 6.79412 13.2451 7.41176 13.9863 7.41176ZM11.8039 16.1137C12.9157 17.198 14.4392 16.951 15.3588 15.6608L20.7255 8.16667C21.2196 7.48039 20.4922 6.76667 19.8059 7.24706L12.2431 12.5451C10.9392 13.451 10.7059 14.9882 11.8039 16.1137ZM8.41373 9.82745C9.1549 9.82745 9.75882 9.2098 9.75882 8.48235C9.75882 7.72745 9.1549 7.13726 8.41373 7.13726C7.67255 7.13726 7.06863 7.72745 7.06863 8.48235C7.06863 9.2098 7.67255 9.82745 8.41373 9.82745ZM6.08039 15.3451C6.83529 15.3451 7.43922 14.7412 7.43922 14C7.43922 13.2588 6.83529 12.6549 6.08039 12.6549C5.35294 12.6549 4.73529 13.2588 4.73529 14C4.73529 14.7412 5.35294 15.3451 6.08039 15.3451ZM21.8922 15.3451C22.6196 15.3451 23.2373 14.7412 23.2373 14C23.2373 13.2588 22.6196 12.6549 21.8922 12.6549C21.1373 12.6549 20.5471 13.2588 20.5471 14C20.5471 14.7412 21.1373 15.3451 21.8922 15.3451ZM8.44118 20.8765C9.18235 20.8765 9.78627 20.2588 9.78627 19.5176C9.78627 18.7765 9.18235 18.1725 8.44118 18.1725C7.7 18.1725 7.09608 18.7765 7.09608 19.5176C7.09608 20.2588 7.7 20.8765 8.44118 20.8765ZM19.5314 20.8765C20.2725 20.8765 20.8765 20.2588 20.8765 19.5176C20.8765 18.7765 20.2725 18.1725 19.5314 18.1725C18.7902 18.1725 18.1863 18.7765 18.1863 19.5176C18.1863 20.2588 18.7902 20.8765 19.5314 20.8765Z" fill="#FC0D1B"/>
</svg>
