<svg width="16" height="20" viewBox="0 0 16 20" fill="none" xmlns="http://www.w3.org/2000/svg">
<path d="M2.89621 20H12.8181C14.752 20 15.7143 19.0205 15.7143 17.0802V8.61007C15.7143 7.40672 15.5741 6.88433 14.8267 6.1194L9.67895 0.886194C8.96891 0.158582 8.38033 0 7.33396 0H2.89621C0.971632 0 0 0.988806 0 2.9291V17.0802C0 19.0299 0.96229 20 2.89621 20ZM2.96161 18.4981C1.99932 18.4981 1.50416 17.9851 1.50416 17.0522V2.95709C1.50416 2.03358 1.99932 1.50187 2.97095 1.50187H7.12842V6.92164C7.12842 8.09701 7.717 8.67537 8.88483 8.67537H14.2101V17.0522C14.2101 17.9851 13.715 18.4981 12.7433 18.4981H2.96161ZM9.053 7.26679C8.67929 7.26679 8.53915 7.11754 8.53915 6.7444V1.79104L13.9205 7.26679H9.053ZM11.2952 11.25H4.20418C3.86784 11.25 3.61559 11.5019 3.61559 11.819C3.61559 12.1455 3.86784 12.3974 4.20418 12.3974H11.2952C11.6222 12.3974 11.8651 12.1455 11.8651 11.819C11.8651 11.5019 11.6222 11.25 11.2952 11.25ZM11.2952 14.5056H4.20418C3.86784 14.5056 3.61559 14.7668 3.61559 15.0933C3.61559 15.4104 3.86784 15.653 4.20418 15.653H11.2952C11.6222 15.653 11.8651 15.4104 11.8651 15.0933C11.8651 14.7668 11.6222 14.5056 11.2952 14.5056Z" fill="#FC0D1B"/>
</svg>
