<svg width="22" height="14" viewBox="0 0 22 14" fill="none" xmlns="http://www.w3.org/2000/svg">
<path d="M11.004 14C17.5082 14 22 8.66628 22 7C22 5.32555 17.5002 0 11.004 0C4.58836 0 0 5.32555 0 7C0 8.66628 4.58031 14 11.004 14ZM11.004 12.7095C5.69923 12.7095 1.40871 8.15169 1.40871 7C1.40871 6.028 5.69923 1.29055 11.004 1.29055C16.2847 1.29055 20.5913 6.028 20.5913 7C20.5913 8.15169 16.2847 12.7095 11.004 12.7095ZM11.004 11.5741C13.5075 11.5741 15.5199 9.49125 15.5199 7C15.5199 4.44341 13.5075 2.4259 11.004 2.4259C8.48445 2.4259 6.46396 4.44341 6.47201 7C6.48811 9.49125 8.48445 11.5741 11.004 11.5741ZM11.004 8.51925C10.1668 8.51925 9.49067 7.83314 9.49067 7C9.49067 6.15869 10.1668 5.48075 11.004 5.48075C11.8331 5.48075 12.5093 6.15869 12.5093 7C12.5093 7.83314 11.8331 8.51925 11.004 8.51925Z" fill="#FC0D1B"/>
</svg>
