<svg width="28" height="25" viewBox="0 0 28 25" fill="none" xmlns="http://www.w3.org/2000/svg">
<path d="M0.150725 22.3882C-0.223219 23.243 0.110659 23.7905 1.01881 23.8974L6.54783 24.4983C7.77651 24.6452 8.49768 23.884 7.84328 22.7622L6.90842 21.1328L14 17.567L21.1049 21.1328L20.1567 22.7622C19.5023 23.884 20.2368 24.6452 21.4522 24.4983L26.9812 23.8974C27.8893 23.7905 28.2232 23.243 27.8493 22.3882L25.6056 17.2999C25.1115 16.1781 24.0965 15.9511 23.4688 17.0462L22.1733 19.2898L15.0818 15.724V7.04318H17.2854C18.5942 7.04318 18.8746 6.04154 18.1401 5.03991L14.8547 0.565935C14.2938 -0.181953 13.6795 -0.195308 13.1186 0.565935L9.84655 5.03991C9.11202 6.02818 9.41919 7.04318 10.7013 7.04318H12.9316V15.724L5.84001 19.2898L4.54456 17.0462C3.91687 15.9511 2.88853 16.1781 2.40774 17.2999L0.150725 22.3882Z" fill="#FC0D1B"/>
</svg>
