<svg width="26" height="25" viewBox="0 0 26 25" fill="none" xmlns="http://www.w3.org/2000/svg">
<path d="M7.41851 24.7675C8.08758 24.7675 8.58059 24.4388 9.39052 23.7228L13.4167 20.1779H20.4831C24.0163 20.1779 26 18.1354 26 14.6492V5.52867C26 2.04244 24.0163 0 20.4831 0H5.51693C1.99549 0 0 2.04244 0 5.52867V14.6492C0 18.1472 2.05418 20.1779 5.43476 20.1779H5.91603V23.0537C5.91603 24.0984 6.46772 24.7675 7.41851 24.7675ZM8.00542 22.1381V18.7928C8.00542 18.1002 7.70023 17.8302 7.04289 17.8302H5.5991C3.39233 17.8302 2.33589 16.7151 2.33589 14.5788V5.5991C2.33589 3.46275 3.39233 2.34763 5.5991 2.34763H20.4126C22.6077 2.34763 23.6641 3.46275 23.6641 5.5991V14.5788C23.6641 16.7151 22.6077 17.8302 20.4126 17.8302H13.2876C12.5716 17.8302 12.2194 17.9476 11.7264 18.4641L8.00542 22.1381Z" fill="#FC0D1B"/>
</svg>
