<svg width="28" height="28" viewBox="0 0 28 28" fill="none" xmlns="http://www.w3.org/2000/svg">
<path d="M12.6785 28H15.3215C16.329 28 17.1009 27.3845 17.3364 26.4153L17.8991 23.9663L18.3178 23.8223L20.4505 25.1319C21.3009 25.6688 22.2822 25.5379 23.0019 24.8176L24.8336 22.9972C25.5533 22.2769 25.6841 21.2816 25.1477 20.4434L23.8131 18.3218L23.9701 17.9289L26.4168 17.3527C27.372 17.1169 28 16.3312 28 15.3358V12.7428C28 11.7474 27.385 10.9616 26.4168 10.7259L23.9963 10.1366L23.8262 9.71749L25.1607 7.59588C25.6972 6.75772 25.5664 5.77549 24.8467 5.0421L23.015 3.20861C22.3084 2.5014 21.3271 2.37044 20.4766 2.89429L18.3439 4.20393L17.8991 4.03368L17.3364 1.58466C17.1009 0.615529 16.329 0 15.3215 0H12.6785C11.671 0 10.8991 0.615529 10.6636 1.58466L10.0879 4.03368L9.64299 4.20393L7.52336 2.89429C6.6729 2.37044 5.6785 2.5014 4.97196 3.20861L3.15327 5.0421C2.43365 5.77549 2.28972 6.75772 2.83925 7.59588L4.16075 9.71749L4.00374 10.1366L1.58318 10.7259C0.614953 10.9616 0 11.7474 0 12.7428V15.3358C0 16.3312 0.628037 17.1169 1.58318 17.3527L4.02991 17.9289L4.17383 18.3218L2.85234 20.4434C2.3028 21.2816 2.44673 22.2769 3.16636 22.9972L4.98505 24.8176C5.70467 25.5379 6.69907 25.6688 7.54953 25.1319L9.66916 23.8223L10.0879 23.9663L10.6636 26.4153C10.8991 27.3845 11.671 28 12.6785 28ZM12.8879 25.957C12.6654 25.957 12.5477 25.8653 12.5084 25.6558L11.7234 22.4079C10.9252 22.2114 10.1794 21.8971 9.61682 21.5435L6.76449 23.2984C6.60748 23.4163 6.43738 23.3901 6.28037 23.2329L4.73645 21.6876C4.59252 21.5435 4.57944 21.3863 4.68411 21.203L6.43738 18.3742C6.13645 17.8241 5.79626 17.0776 5.58692 16.2788L2.34206 15.5061C2.13271 15.4668 2.04112 15.3489 2.04112 15.1263V12.9392C2.04112 12.7035 2.11963 12.5987 2.34206 12.5594L5.57383 11.7736C5.78318 10.9224 6.1757 10.1497 6.41122 9.66511L4.67103 6.8363C4.55327 6.63985 4.56636 6.48269 4.71028 6.32554L6.26729 4.80636C6.4243 4.6492 6.56822 4.62301 6.76449 4.74088L9.59065 6.4565C10.1533 6.14219 10.9514 5.81478 11.7364 5.59214L12.5084 2.34425C12.5477 2.13471 12.6654 2.04303 12.8879 2.04303H15.1122C15.3346 2.04303 15.4523 2.13471 15.4785 2.34425L16.2766 5.61833C17.0879 5.82788 17.7944 6.15528 18.3832 6.4696L21.2224 4.74088C21.4318 4.62301 21.5626 4.6492 21.7327 4.80636L23.2766 6.32554C23.4336 6.48269 23.4336 6.63985 23.3159 6.8363L21.5757 9.66511C21.8243 10.1497 22.2037 10.9224 22.4131 11.7736L25.6579 12.5594C25.8673 12.5987 25.9589 12.7035 25.9589 12.9392V15.1263C25.9589 15.3489 25.8542 15.4668 25.6579 15.5061L22.4 16.2788C22.1907 17.0776 21.8636 17.8241 21.5495 18.3742L23.3028 21.203C23.4075 21.3863 23.4075 21.5435 23.2505 21.6876L21.7196 23.2329C21.5495 23.3901 21.3925 23.4163 21.2224 23.2984L18.3701 21.5435C17.8075 21.8971 17.0748 22.2114 16.2766 22.4079L15.4785 25.6558C15.4523 25.8653 15.3346 25.957 15.1122 25.957H12.8879ZM14 19.0028C16.7346 19.0028 18.985 16.7502 18.985 14C18.985 11.276 16.7346 9.02339 14 9.02339C11.2654 9.02339 9.00187 11.276 9.00187 14C9.00187 16.7371 11.2523 19.0028 14 19.0028ZM14 16.9729C12.3776 16.9729 11.043 15.637 11.043 14C11.043 12.3891 12.3776 11.0533 14 11.0533C15.5963 11.0533 16.9308 12.3891 16.9308 14C16.9308 15.6239 15.5963 16.9729 14 16.9729Z" fill="#FC0D1B"/>
</svg>
